HIERARCHY
ROOT Hips
{
 OFFSET 0.000000 0.000000 0.000000
 CHANNELS 6 Xposition Yposition Zposition Yrotation Xrotation Zrotation
 JOINT Chest
 {
  OFFSET 0.000000 9.585900 0.002600
  CHANNELS 3 Yrotation Xrotation Zrotation
  JOINT Chest2
  {
   OFFSET 0.000000 9.601200 -0.005300
   CHANNELS 3 Yrotation Xrotation Zrotation
   JOINT Chest3
   {
    OFFSET 0.000000 9.561800 0.000000
    CHANNELS 3 Yrotation Xrotation Zrotation
    JOINT Chest4
    {
     OFFSET 0.000000 9.552100 0.000000
     CHANNELS 3 Yrotation Xrotation Zrotation
     JOINT Neck
     {
      OFFSET 0.000000 14.453000 0.000000
      CHANNELS 3 Yrotation Xrotation Zrotation
      JOINT Head
      {
       OFFSET 0.000000 8.936500 -0.011300
       CHANNELS 3 Yrotation Xrotation Zrotation
       End Site
       {
        OFFSET 0.000000 17.073600 -0.006000
       }
      }
     }
     JOINT RightCollar
     {
      OFFSET -2.921100 9.558500 0.000000
      CHANNELS 3 Yrotation Xrotation Zrotation
      JOINT RightShoulder
      {
       OFFSET -13.519700 0.000000 0.000000
       CHANNELS 3 Yrotation Xrotation Zrotation
       JOINT RightElbow
       {
        OFFSET 0.000000 -29.696600 0.000000
        CHANNELS 3 Yrotation Xrotation Zrotation
        JOINT RightWrist
        {
         OFFSET 0.000000 -24.004700 0.000000
         CHANNELS 3 Yrotation Xrotation Zrotation
         End Site
         {
          OFFSET 0.000000 -17.728500 0.000000
         }
        }
       }
      }
     }
     JOINT LeftCollar
     {
      OFFSET 2.921100 9.558500 0.000000
      CHANNELS 3 Yrotation Xrotation Zrotation
      JOINT LeftShoulder
      {
       OFFSET 13.519700 0.000000 0.000000
       CHANNELS 3 Yrotation Xrotation Zrotation
       JOINT LeftElbow
       {
        OFFSET 0.000000 -29.696600 0.000000
        CHANNELS 3 Yrotation Xrotation Zrotation
        JOINT LeftWrist
        {
         OFFSET 0.000000 -24.004700 0.000000
         CHANNELS 3 Yrotation Xrotation Zrotation
         End Site
         {
          OFFSET 0.000000 -17.728500 0.000000
         }
        }
       }
      }
     }
    }
   }
  }
 }
 JOINT RightHip
 {
  OFFSET -7.771700 -0.012900 -0.001300
  CHANNELS 3 Yrotation Xrotation Zrotation
  JOINT RightKnee
  {
   OFFSET 0.000000 -40.869800 0.001200
   CHANNELS 3 Yrotation Xrotation Zrotation
   JOINT RightAnkle
   {
    OFFSET 0.000000 -39.717900 0.002100
    CHANNELS 3 Yrotation Xrotation Zrotation
    JOINT RightToe
    {
     OFFSET 0.000000 -4.965400 11.033500
     CHANNELS 3 Yrotation Xrotation Zrotation
     End Site
     {
      OFFSET 0.000000 -1.423100 5.872300
     }
    }
   }
  }
 }
 JOINT LeftHip
 {
  OFFSET 7.771700 -0.012900 -0.001300
  CHANNELS 3 Yrotation Xrotation Zrotation
  JOINT LeftKnee
  {
   OFFSET 0.000000 -40.869800 0.001200
   CHANNELS 3 Yrotation Xrotation Zrotation
   JOINT LeftAnkle
   {
    OFFSET 0.000000 -39.717900 0.002100
    CHANNELS 3 Yrotation Xrotation Zrotation
    JOINT LeftToe
    {
     OFFSET 0.000000 -4.965400 11.033500
     CHANNELS 3 Yrotation Xrotation Zrotation
     End Site
     {
      OFFSET 0.000000 -1.423100 5.872300
     }
    }
   }
  }
 }
}
MOTION
Frames: 15
Frame Time: 0.008333
-21.467149 57.978803 13.325695 176.206060 -49.087001 -2.833776 3.827856 22.240621 3.180888 1.979468 12.737061 1.679274 2.550536 15.911099 2.183725 1.979441 12.737016 1.679221 -0.489877 17.394362 2.037467 -1.612379 -3.414558 3.917369 3.825641 2.471065 1.608804 -2.267181 -22.755346 -5.550325 -15.900870 -53.033212 54.285586 20.878568 15.001918 -26.325564 -10.203479 0.574991 -1.506092 -7.337091 -19.321358 13.529188 -3.633199 -63.380352 -27.966821 -14.549106 15.807605 -4.482694 1.852311 -22.966577 -2.641904 -32.941905 73.521610 -37.305696 6.517903 -13.073321 10.935477 0.033217 -0.082503 0.050291 -2.080539 -19.928025 7.531464 85.772573 84.399434 86.014230 -0.450288 -22.560040 -15.655690 0.026615 0.089769 0.027911
-21.468505 57.978860 13.325905 176.215536 -49.086622 -2.844708 3.837342 22.243277 3.194732 1.980683 12.736069 1.680557 2.552024 15.909886 2.185285 1.980652 12.736136 1.680511 -0.503124 17.388276 2.041785 -1.616328 -3.511001 3.964205 3.833822 2.461427 1.602765 -2.287371 -22.748914 -5.542001 -15.836683 -53.050555 54.244720 20.856762 14.995916 -26.329734 -10.210762 0.567094 -1.500763 -7.325071 -19.317473 13.518536 -3.670706 -63.381671 -27.936828 -14.546100 15.804670 -4.488122 1.856139 -22.964447 -2.632331 -32.979101 73.516005 -37.338645 6.521903 -13.082844 10.928523 0.047574 -0.090393 0.047198 -2.082919 -19.929176 7.539504 85.755622 84.402586 85.994629 -0.452095 -22.561397 -15.652289 0.026494 0.091705 0.027260
-21.472059 57.979060 13.326016 176.228639 -49.087478 -2.844800 3.835778 22.246733 3.192026 1.993529 12.737318 1.687410 2.544590 15.909693 2.183845 1.997497 12.741823 1.686167 -0.521784 17.363220 2.051513 -1.628705 -3.545961 3.987436 3.824693 2.437523 1.598337 -2.304104 -22.737052 -5.537435 -15.825822 -53.053778 54.232997 20.866994 15.003576 -26.324641 -10.236846 0.548938 -1.492739 -7.308672 -19.313697 13.513116 -3.693642 -63.368310 -27.912599 -14.550867 15.786878 -4.495672 1.862995 -22.960401 -2.637997 -32.999751 73.517103 -37.362480 6.511530 -13.093270 10.936047 0.050617 -0.091262 0.044968 -2.083391 -19.929146 7.533760 85.691345 84.405067 85.924489 -0.456138 -22.558959 -15.651059 0.025839 0.094301 0.031725
-21.475678 57.979166 13.326493 176.238418 -49.087453 -2.841666 3.834114 22.247202 3.188098 1.994552 12.737374 1.688608 2.546508 15.912689 2.186711 1.995686 12.742527 1.686488 -0.510796 17.331257 2.072840 -1.648907 -3.567637 3.999056 3.856900 2.412919 1.585862 -2.329634 -22.713648 -5.533184 -15.833305 -53.059015 54.229298 20.877346 15.010239 -26.321263 -10.245649 0.535706 -1.486954 -7.290761 -19.309229 13.506781 -3.707718 -63.358217 -27.905137 -14.550795 15.779725 -4.477970 1.873532 -22.957758 -2.644371 -33.031625 73.513214 -37.403963 6.521652 -13.103437 10.951871 0.032994 -0.093827 0.038791 -2.063618 -19.932333 7.533731 85.606143 84.412681 85.840374 -0.477498 -22.555763 -15.632752 0.032191 0.093924 0.032351
-21.477860 57.980464 13.326382 176.250178 -49.096104 -2.847810 3.832953 22.252680 3.190875 1.995553 12.740624 1.690466 2.550724 15.915656 2.189276 1.995517 12.742858 1.689619 -0.515257 17.316803 2.079076 -1.656342 -3.592615 4.013321 3.872300 2.396520 1.575755 -2.315394 -22.697788 -5.532973 -15.817226 -53.074855 54.188776 20.890312 15.018154 -26.312361 -10.255069 0.522422 -1.483981 -7.278605 -19.300617 13.498859 -3.723223 -63.350151 -27.891383 -14.550050 15.770925 -4.470564 1.879217 -22.946615 -2.644921 -33.058099 73.510991 -37.427152 6.512065 -13.107533 10.955933 0.046666 -0.096702 0.037620 -2.064649 -19.924051 7.532315 85.585689 84.413314 85.820342 -0.477962 -22.554540 -15.631882 0.032699 0.090204 0.028374
-21.480142 57.980813 13.327289 176.259869 -49.096982 -2.851474 3.839996 22.252473 3.199597 1.983129 12.741678 1.684913 2.560860 15.916953 2.195074 1.995221 12.745071 1.692168 -0.526099 17.308938 2.078881 -1.660232 -3.637340 4.039642 3.881714 2.383729 1.566307 -2.329252 -22.687062 -5.526997 -15.800979 -53.083658 54.169990 20.888166 15.020864 -26.309412 -10.261962 0.509144 -1.483754 -7.268723 -19.297423 13.493419 -3.739691 -63.337587 -27.880745 -14.552064 15.760826 -4.469598 1.886103 -22.943903 -2.650657 -33.071483 73.511951 -37.436763 6.527444 -13.119735 10.950210 0.035983 -0.096464 0.040242 -2.065044 -19.924392 7.531285 85.557091 84.415107 85.787713 -0.476351 -22.552747 -15.626446 0.028572 0.092552 0.028276
-21.482268 57.981218 13.328332 176.270801 -49.097652 -2.856211 3.835314 22.253691 3.200227 1.986377 12.742624 1.688618 2.559703 15.918072 2.195667 1.997360 12.746077 1.692187 -0.531038 17.290219 2.089311 -1.667315 -3.683443 4.064852 3.892859 2.370376 1.557692 -2.340540 -22.675069 -5.520152 -15.789961 -53.089758 54.153806 20.883713 15.022983 -26.310742 -10.263375 0.497156 -1.483281 -7.254420 -19.299576 13.484439 -3.773263 -63.321088 -27.865609 -14.551858 15.751888 -4.465565 1.886438 -22.942514 -2.655583 -33.079259 73.512805 -37.441744 6.529555 -13.123137 10.950047 0.027488 -0.101215 0.035341 -2.062946 -19.925616 7.536479 85.535107 84.409060 85.760238 -0.498394 -22.550620 -15.613665 0.037608 0.090479 0.027127
-21.485445 57.981584 13.329394 176.275280 -49.097669 -2.848860 3.838939 22.255516 3.197754 1.985967 12.743275 1.689451 2.559105 15.918936 2.196891 1.998296 12.744789 1.694094 -0.534621 17.272756 2.098723 -1.675850 -3.716001 4.084729 3.895313 2.360088 1.551929 -2.315895 -22.664888 -5.513415 -15.797740 -53.094301 54.121879 20.882061 15.023519 -26.312014 -10.265885 0.485835 -1.481463 -7.255795 -19.294672 13.479814 -3.794260 -63.308829 -27.850917 -14.542076 15.740184 -4.450372 1.894091 -22.942081 -2.665777 -33.091390 73.514410 -37.454818 6.511860 -13.129422 10.951542 0.033540 -0.099701 0.037162 -2.052950 -19.928250 7.531512 85.509155 84.411124 85.730565 -0.512009 -22.547467 -15.600576 0.045043 0.084600 0.022712
-21.487917 57.982001 13.330584 176.275333 -49.097001 -2.841509 3.846073 22.251630 3.199801 1.982594 12.746147 1.687903 2.561580 15.919885 2.199687 1.997063 12.744347 1.695761 -0.535695 17.257054 2.108046 -1.682633 -3.746360 4.103806 3.889877 2.357017 1.548351 -2.308415 -22.663254 -5.510336 -15.779013 -53.098260 54.098509 20.879974 15.024738 -26.311746 -10.270031 0.476596 -1.479359 -7.251496 -19.290765 13.474066 -3.817037 -63.298236 -27.833963 -14.539982 15.734913 -4.448748 1.908270 -22.942221 -2.673871 -33.098510 73.516548 -37.458109 6.502913 -13.136768 10.949589 0.033589 -0.095162 0.042972 -2.040930 -19.929226 7.528183 85.445293 84.400721 85.659922 -0.514546 -22.543568 -15.596791 0.030945 0.089547 0.026415
-21.488779 57.983635 13.330905 176.284342 -49.104434 -2.849472 3.846729 22.256217 3.208845 1.985032 12.747744 1.688359 2.562048 15.920796 2.200788 1.993875 12.743542 1.699776 -0.526753 17.226711 2.128964 -1.694531 -3.757768 4.111025 3.898502 2.348552 1.534586 -2.325227 -22.655436 -5.496808 -15.754666 -53.098277 54.080518 20.881649 15.022641 -26.316633 -10.275373 0.468421 -1.479430 -7.242581 -19.287941 13.468249 -3.837975 -63.290719 -27.819736 -14.529067 15.729195 -4.436643 1.920140 -22.929472 -2.672431 -33.116717 73.512680 -37.467216 6.493282 -13.144046 10.952977 0.030433 -0.094996 0.040405 -2.037212 -19.921192 7.538673 85.388693 84.409294 85.605996 -0.530886 -22.542830 -15.592367 0.042631 0.087517 0.030927
-21.490791 57.984695 13.331495 176.286349 -49.106814 -2.844946 3.846524 22.257359 3.207813 1.984427 12.746343 1.691025 2.567846 15.921232 2.208758 1.987950 12.745831 1.695195 -0.526111 17.214029 2.137340 -1.696651 -3.780994 4.126617 3.936107 2.332257 1.514584 -2.377241 -22.639557 -5.477754 -15.749600 -53.096095 54.073266 20.879954 15.022677 -26.307131 -10.282253 0.463559 -1.482251 -7.237730 -19.286585 13.465574 -3.846334 -63.287963 -27.815649 -14.520245 15.732894 -4.419457 1.927304 -22.923781 -2.677399 -33.123541 73.506994 -37.477011 6.498569 -13.151145 10.953352 0.022526 -0.096563 0.037612 -2.035056 -19.918576 7.535062 85.352675 84.408240 85.568043 -0.541473 -22.539858 -15.592002 0.042086 0.085056 0.032304
-21.492274 57.985985 13.331766 176.290368 -49.110044 -2.844908 3.847443 22.259251 3.209620 1.984834 12.747461 1.694062 2.565811 15.921415 2.207838 1.986773 12.746160 1.695187 -0.522673 17.205508 2.144385 -1.693741 -3.802544 4.143791 3.941025 2.328109 1.510048 -2.381138 -22.640212 -5.475797 -15.744183 -53.092121 54.064109 20.884122 15.030822 -26.295391 -10.285726 0.458368 -1.482099 -7.232790 -19.285130 13.462809 -3.870107 -63.283751 -27.795610 -14.519114 15.727472 -4.403504 1.927974 -22.919232 -2.679528 -33.120761 73.508718 -37.477652 6.500160 -13.154892 10.955615 0.018186 -0.098573 0.035798 -2.032082 -19.915204 7.534910 85.310201 84.411636 85.524308 -0.541239 -22.534472 -15.593308 0.044459 0.082143 0.034165
-21.493078 57.987245 13.331843 176.291525 -49.112685 -2.846873 3.851607 22.260652 3.214600 1.983586 12.747220 1.695105 2.563465 15.922582 2.206724 1.989212 12.746355 1.697120 -0.524297 17.202679 2.145343 -1.684136 -3.823060 4.164737 3.944029 2.323850 1.506381 -2.389805 -22.638365 -5.471932 -15.741721 -53.089931 54.061213 20.887912 15.034856 -26.293819 -10.300541 0.437450 -1.474002 -7.214383 -19.276279 13.449944 -3.909011 -63.273061 -27.755158 -14.514294 15.716577 -4.404438 1.931093 -22.915706 -2.675671 -33.128291 73.508584 -37.485099 6.496945 -13.155773 10.957507 0.026032 -0.106783 0.027997 -2.025684 -19.911094 7.538897 85.245665 84.412610 85.461651 -0.544884 -22.531354 -15.593744 0.047662 0.082041 0.035267
-21.494944 57.987952 13.331907 176.291231 -49.111154 -2.841726 3.852819 22.259377 3.213004 1.990566 12.746153 1.699568 2.560063 15.922798 2.205308 1.990006 12.746587 1.698803 -0.521584 17.194479 2.155002 -1.686409 -3.829359 4.173714 3.943344 2.314548 1.498025 -2.399758 -22.627772 -5.459400 -15.732094 -53.090630 54.060654 20.884733 15.041164 -26.308038 -10.310678 0.423866 -1.469875 -7.210574 -19.270619 13.447803 -3.914166 -63.268335 -27.749309 -14.512706 15.714509 -4.406302 1.938867 -22.918552 -2.681870 -33.135003 73.512311 -37.490559 6.495708 -13.154728 10.958575 0.026619 -0.112267 0.026543 -2.022356 -19.911191 7.535551 85.213363 84.409846 85.426043 -0.549868 -22.529571 -15.591976 0.043199 0.083359 0.032154
-21.496809 57.988854 13.331437 176.296459 -49.111098 -2.840883 3.848244 22.259999 3.209316 1.992675 12.747242 1.701173 2.560981 15.919196 2.208269 1.991678 12.745673 1.701728 -0.517248 17.186494 2.164888 -1.695534 -3.823402 4.166835 3.953054 2.309472 1.485458 -2.413037 -22.620717 -5.448424 -15.727434 -53.090224 54.055775 20.881511 15.047970 -26.314308 -10.318178 0.415189 -1.471503 -7.204351 -19.270914 13.442632 -3.956261 -63.266039 -27.716269 -14.497863 15.712242 -4.407408 1.946050 -22.917762 -2.685491 -33.128535 73.521095 -37.486413 6.485488 -13.160587 10.964594 0.022738 -0.113523 0.026537 -2.023815 -19.910738 7.530872 85.214334 84.407373 85.427623 -0.560666 -22.528091 -15.590752 0.046186 0.081001 0.030333
